# File created by Blade
# Date/Time:  Thu Jan 22 16:16:06 2015
# Frame Rate: 120.000 fps
#------------------------------------------------------
:FULLY-SPECIFIED
:DEGREES
1029
root 5.602497 32.874161 -9.278622 51.398051 17.547931 14.216227
RightUpLeg -41.810311 -45.689068 -18.115096
RightLeg -7.912222 -0.000000 0.000000
RightFoot 1.478719 -30.748811 38.562239
RightToeBase 14.397063 -0.000000 -0.000000
LeftUpLeg -81.894536 -5.328671 7.562298
LeftLeg 33.349737 -0.000000 -0.000000
LeftFoot -4.692668 5.564118 -30.819902
LeftToeBase 10.886672 -0.000000 -0.000000
Spine 77.828495 2.011567 -15.801073
RightShoulder 12.300564 9.888949 -49.685365
RightArm 72.172701 30.195269 32.276882
RightForeArm -29.711391 0.000000 25.335020
RightHand 12.003491 -0.000000 -21.753516
RightHandThumb1 -24.326973 -0.000000 -32.862282
LeftShoulder 7.214840 11.285732 36.498890
LeftArm 80.834757 -43.278794 -37.790591
LeftForeArm 48.168084 0.000000 12.346581
LeftHand -17.946947 -0.000000 16.330587
LeftHandThumb1 -26.253704 0.000000 33.147579
Head -13.288217 5.306024 -21.658631
1030
root 5.582519 32.884960 -9.275785 50.936299 17.414710 14.208720
RightUpLeg -41.424146 -45.592661 -18.356671
RightLeg -7.928205 -0.000000 0.000000
RightFoot 1.633516 -30.606038 38.403978
RightToeBase 14.376902 -0.000000 -0.000000
LeftUpLeg -81.335893 -5.258835 7.381104
LeftLeg 33.222048 -0.000000 -0.000000
LeftFoot -4.515893 5.474967 -30.794739
LeftToeBase 11.031576 -0.000000 -0.000000
Spine 77.706552 2.096694 -16.242947
RightShoulder 12.527130 10.281527 -49.709150
RightArm 72.418187 29.490665 32.575021
RightForeArm -29.627431 -0.000000 25.299022
RightHand 11.859077 -0.000000 -21.716812
RightHandThumb1 -24.326973 -0.000000 -32.862282
LeftShoulder 7.105415 11.541171 36.192707
LeftArm 80.741363 -42.961889 -37.564215
LeftForeArm 48.155911 -0.000000 12.405977
LeftHand -17.929643 -0.000000 16.142033
LeftHandThumb1 -26.253704 0.000000 33.147579
Head -13.279178 5.378155 -21.838816
1031
root 5.556144 32.899193 -9.272819 50.445235 17.319264 14.180147
RightUpLeg -40.976829 -45.451517 -18.615085
RightLeg -7.938795 -0.000000 0.000000
RightFoot 1.709241 -30.503592 38.353774
RightToeBase 14.351930 -0.000000 -0.000000
LeftUpLeg -80.748093 -5.176169 7.232012
LeftLeg 33.045637 -0.000000 -0.000000
LeftFoot -4.480975 5.464559 -30.792660
LeftToeBase 11.400024 -0.000000 -0.000000
Spine 77.601830 2.180031 -16.643837
RightShoulder 12.782312 10.440086 -49.708105
RightArm 72.707982 29.015117 32.722374
RightForeArm -29.461270 -0.000000 25.296159
RightHand 11.584229 0.000000 -21.642704
RightHandThumb1 -24.326973 -0.000000 -32.862282
LeftShoulder 6.979582 11.991138 35.916978
LeftArm 80.892771 -42.820251 -37.594272
LeftForeArm 48.166958 0.000000 12.532777
LeftHand -17.896336 -0.000000 15.870364
LeftHandThumb1 -26.253704 0.000000 33.147579
Head -13.321753 5.465167 -21.980536
1032
root 5.531280 32.915180 -9.267637 49.927430 17.224634 14.185354
RightUpLeg -40.480345 -45.338842 -18.922228
RightLeg -7.942991 -0.000000 0.000000
RightFoot 1.836355 -30.381715 38.211785
RightToeBase 14.288056 -0.000000 -0.000000
LeftUpLeg -80.096519 -5.137675 7.084579
LeftLeg 32.831167 -0.000000 -0.000000
LeftFoot -4.363526 5.476808 -30.878548
LeftToeBase 11.534828 -0.000000 -0.000000
Spine 77.503947 2.235333 -17.070933
RightShoulder 13.062623 10.577567 -49.764556
RightArm 72.976914 28.567848 32.977898
RightForeArm -29.301012 -0.000000 25.391952
RightHand 11.382219 -0.000000 -21.321544
RightHandThumb1 -24.326973 -0.000000 -32.862282
LeftShoulder 6.881919 12.357504 35.623238
LeftArm 80.745041 -42.585892 -37.314671
LeftForeArm 48.134047 0.000000 12.615001
LeftHand -17.768229 -0.000000 15.763816
LeftHandThumb1 -26.253704 0.000000 33.147579
Head -13.281192 5.530683 -22.150628
1033
root 5.503151 32.928672 -9.268353 49.458071 17.172466 14.147145
RightUpLeg -40.056693 -45.204934 -19.139810
RightLeg -7.934277 -0.000000 0.000000
RightFoot 1.936908 -30.275889 38.045370
RightToeBase 14.347833 -0.000000 -0.000000
LeftUpLeg -79.535997 -5.084973 7.017193
LeftLeg 32.644012 -0.000000 -0.000000
LeftFoot -4.255152 5.486233 -30.797876
LeftToeBase 11.275599 -0.000000 -0.000000
Spine 77.320215 2.364206 -17.148696
RightShoulder 13.136503 10.531726 -49.715963
RightArm 73.172167 28.001656 33.016700
RightForeArm -29.085396 0.000000 25.482777
RightHand 11.157438 -0.000000 -21.026417
RightHandThumb1 -24.326973 -0.000000 -32.862282
LeftShoulder 6.947634 12.400843 35.440112
LeftArm 80.840531 -42.122439 -37.435730
LeftForeArm 48.504967 -0.000000 12.721654
LeftHand -17.628982 -0.000000 15.405912
LeftHandThumb1 -26.253704 0.000000 33.147579
Head -13.135802 5.403891 -22.229232
1034
root 5.474435 32.944515 -9.264163 48.914887 17.115796 14.105507
RightUpLeg -39.511012 -45.019799 -19.445148
RightLeg -7.942724 -0.000000 0.000000
RightFoot 2.052652 -30.193155 37.855187
RightToeBase 14.249048 -0.000000 -0.000000
LeftUpLeg -78.875948 -5.038133 6.956081
LeftLeg 32.416681 -0.000000 -0.000000
LeftFoot -4.163383 5.526067 -30.748122
LeftToeBase 11.307899 -0.000000 -0.000000
Spine 77.233349 2.520529 -17.211099
RightShoulder 13.142353 10.263837 -49.768887
RightArm 73.511400 27.639362 33.151185
RightForeArm -28.920460 -0.000000 25.528148
RightHand 11.032434 -0.000000 -20.827352
RightHandThumb1 -24.326973 -0.000000 -32.862282
LeftShoulder 6.980516 12.378560 35.259402
LeftArm 81.024795 -41.624008 -37.650587
LeftForeArm 48.829156 -0.000000 12.766944
LeftHand -17.566368 0.000000 15.107889
LeftHandThumb1 -26.253704 0.000000 33.147579
Head -13.097157 5.319579 -22.247661
1035
root 5.444114 32.961839 -9.256758 48.414942 17.057745 14.063868
RightUpLeg -38.984357 -44.800204 -19.759902
RightLeg -7.940730 -0.000000 0.000000
RightFoot 2.090616 -30.165536 37.665916
RightToeBase 14.362562 -0.000000 -0.000000
LeftUpLeg -78.246548 -4.972728 6.886371
LeftLeg 32.194613 -0.000000 -0.000000
LeftFoot -4.106568 5.478510 -30.847004
LeftToeBase 11.667869 -0.000000 -0.000000
Spine 77.020594 2.585955 -17.398042
RightShoulder 13.324953 10.308632 -49.817095
RightArm 73.705048 27.028561 33.210014
RightForeArm -28.590421 -0.000000 25.512004
RightHand 10.898985 -0.000000 -20.703480
RightHandThumb1 -24.326973 -0.000000 -32.862282
LeftShoulder 7.030047 12.367284 34.962000
LeftArm 80.790077 -41.045790 -37.470526
LeftForeArm 48.993135 -0.000000 12.849564
LeftHand -17.525372 -0.000000 15.025324
LeftHandThumb1 -26.253704 0.000000 33.147579
Head -12.937809 5.357721 -22.428185
1036
root 5.413911 32.979787 -9.251769 47.884925 17.000006 14.053581
RightUpLeg -38.361253 -44.540357 -20.196729
RightLeg -7.934387 -0.000000 0.000000
RightFoot 2.102635 -30.170117 37.518636
RightToeBase 14.298436 -0.000000 -0.000000
LeftUpLeg -77.565942 -4.931920 6.799148
LeftLeg 31.931771 -0.000000 -0.000000
LeftFoot -3.988966 5.444079 -30.866808
LeftToeBase 11.564623 -0.000000 -0.000000
Spine 76.872621 2.746120 -17.452136
RightShoulder 13.334724 10.081325 -49.792064
RightArm 73.963145 26.535354 33.207864
RightForeArm -28.317916 -0.000000 25.516674
RightHand 10.741410 -0.000000 -20.657120
RightHandThumb1 -24.326973 -0.000000 -32.862282
LeftShoulder 7.096058 12.355413 34.832556
LeftArm 80.832143 -40.467930 -37.519000
LeftForeArm 49.340116 -0.000000 12.848391
LeftHand -17.355356 -0.000000 15.003300
LeftHandThumb1 -26.253704 0.000000 33.147579
Head -12.842921 5.264761 -22.382112
1037
root 5.381185 33.000070 -9.245951 47.371061 16.948614 14.039115
RightUpLeg -37.769209 -44.274081 -20.604474
RightLeg -7.914071 -0.000000 0.000000
RightFoot 2.105574 -30.180030 37.382489
RightToeBase 14.299503 -0.000000 -0.000000
LeftUpLeg -76.900605 -4.883043 6.714766
LeftLeg 31.660667 -0.000000 -0.000000
LeftFoot -3.844574 5.432476 -30.922044
LeftToeBase 11.476438 -0.000000 -0.000000
Spine 76.674349 2.802146 -17.678210
RightShoulder 13.512431 10.055738 -49.833813
RightArm 74.149112 26.004387 33.188303
RightForeArm -28.001043 -0.000000 25.521151
RightHand 10.667262 -0.000000 -20.605945
RightHandThumb1 -24.326973 -0.000000 -32.862282
LeftShoulder 7.060367 12.534272 34.548004
LeftArm 80.706740 -39.971681 -37.273768
LeftForeArm 49.499124 -0.000000 12.869741
LeftHand -17.383640 -0.000000 14.957195
LeftHandThumb1 -26.253704 0.000000 33.147579
Head -12.768423 5.324662 -22.511608
1038
root 5.351342 33.021551 -9.236710 46.835521 16.894468 14.050931
RightUpLeg -37.141392 -44.027640 -21.046121
RightLeg -7.891529 -0.000000 0.000000
RightFoot 2.132123 -30.177255 37.245764
RightToeBase 14.240890 -0.000000 -0.000000
LeftUpLeg -76.191189 -4.861035 6.613385
LeftLeg 31.371491 -0.000000 -0.000000
LeftFoot -3.702389 5.424890 -30.959988
LeftToeBase 11.485454 -0.000000 -0.000000
Spine 76.518744 2.889710 -17.825357
RightShoulder 13.558699 9.927378 -49.883931
RightArm 74.391585 25.465765 33.228569
RightForeArm -27.751509 -0.000000 25.562551
RightHand 10.531325 -0.000000 -20.492171
RightHandThumb1 -24.326973 -0.000000 -32.862282
LeftShoulder 7.049337 12.677229 34.338414
LeftArm 80.728913 -39.441701 -37.261289
LeftForeArm 49.817188 0.000000 12.959045
LeftHand -17.559031 0.000000 14.997650
LeftHandThumb1 -26.253704 0.000000 33.147579
Head -12.726725 5.255524 -22.541014
1039
root 5.316336 33.041976 -9.232867 46.354924 16.870353 14.024763
RightUpLeg -36.621564 -43.787204 -21.364719
RightLeg -7.859223 -0.000000 0.000000
RightFoot 2.109084 -30.179629 37.125471
RightToeBase 14.297725 -0.000000 -0.000000
LeftUpLeg -75.569460 -4.829242 6.591987
LeftLeg 31.095561 -0.000000 -0.000000
LeftFoot -3.528660 5.402003 -31.132910
LeftToeBase 11.648837 -0.000000 -0.000000
Spine 76.261933 2.941044 -17.902412
RightShoulder 13.613326 9.884843 -49.889808
RightArm 74.585368 24.797096 33.227322
RightForeArm -27.524511 -0.000000 25.606965
RightHand 10.365889 -0.000000 -20.374071
RightHandThumb1 -24.326973 -0.000000 -32.862282
LeftShoulder 7.061860 12.850588 34.152609
LeftArm 80.746518 -38.878865 -37.247747
LeftForeArm 49.964629 -0.000000 12.990361
LeftHand -17.627197 -0.000000 15.352472
LeftHandThumb1 -26.253704 0.000000 33.147579
Head -12.669583 5.249787 -22.624266
1040
root 5.281904 33.064567 -9.220249 45.784914 16.836921 14.003537
RightUpLeg -36.142995 -43.658180 -21.605374
RightLeg -7.724292 -0.000000 0.000000
RightFoot 2.162848 -29.992935 36.985935
RightToeBase 14.225515 -0.000000 -0.000000
LeftUpLeg -74.828102 -4.820015 6.578324
LeftLeg 30.789646 -0.000000 -0.000000
LeftFoot -3.416699 5.439083 -31.144970
LeftToeBase 11.668158 -0.000000 -0.000000
Spine 76.091175 3.027745 -18.040092
RightShoulder 13.702461 9.687903 -49.898499
RightArm 74.868049 24.337541 33.238374
RightForeArm -27.402364 -0.000000 25.671393
RightHand 10.157484 -0.000000 -20.074675
RightHandThumb1 -24.326973 -0.000000 -32.862282
LeftShoulder 7.019368 13.082761 33.978861
LeftArm 80.774275 -38.348844 -37.221715
LeftForeArm 50.010520 0.000000 13.017954
LeftHand -17.577880 -0.000000 15.557200
LeftHandThumb1 -26.253704 0.000000 33.147579
Head -12.655904 5.274201 -22.619540
1041
root 5.250781 33.090949 -9.197367 45.218138 16.731334 14.016448
RightUpLeg -35.542704 -43.404877 -22.021547
RightLeg -7.673692 -0.000000 0.000000
RightFoot 2.181921 -29.907535 36.869995
RightToeBase 14.495673 -0.000000 -0.000000
LeftUpLeg -74.018906 -4.793636 6.493786
LeftLeg 30.430753 -0.000000 -0.000000
LeftFoot -3.288318 5.488057 -31.047640
LeftToeBase 11.473146 -0.000000 -0.000000
Spine 75.922779 3.105822 -18.398212
RightShoulder 13.841963 9.841050 -49.869271
RightArm 75.111443 23.640441 33.256470
RightForeArm -27.207438 0.000000 25.658039
RightHand 10.104059 0.000000 -20.179394
RightHandThumb1 -24.326973 -0.000000 -32.862282
LeftShoulder 6.818465 13.447510 33.736825
LeftArm 80.867424 -37.868670 -37.240899
LeftForeArm 50.075163 -0.000000 13.073358
LeftHand -17.438878 -0.000000 15.640348
LeftHandThumb1 -26.253704 0.000000 33.147579
Head -12.752390 5.387859 -22.705917
